# xmcd
#
# Track frame offsets:
#	150
#	17670
#	30551
#	47945
#	63060
#	78818
#	94119
#	109436
#	127954
#	140715
#	156079
#	169071
#	184026
#
# Disc length: 2623 seconds
#
# Revision: 0
# Processed by: cddbd v1.5.2PL0 Copyright (c) Steve Scherf et al.
# Submitted via: audiograbber 1.83.01
#
DISCID=a40a3d0d
DTITLE=Various Artist - COUNTRY MAY 2015
DYEAR=2015
DGENRE=Country
TTITLE0=BLAKE SHELTON - SANGRIA
TTITLE1=SARABETH - I'M SICK OF IT
TTITLE2=JASON ALDEAN - TONIGHT LOOKS GOOD ON YOU
TTITLE3=JANA KRAMER - I GOT THE BOY
TTITLE4=BRYAN MAYER - LEAVING TOWN
TTITLE5=CASEY JAMES - FALL APART
TTITLE6=CHASE BRYANT - EVERY ONE OF YOU
TTITLE7=STRIKING MATCHES - HANGING ON A LIE
TTITLE8=SARAH DUNN BAND - BYE BYE
TTITLE9=SUNNY SWEENEY - MY BED
TTITLE10=ELI YOUNG BAND - TURN IT ON
TTITLE11=KACEY MUSGRAVES - BISCUITS
TTITLE12=LOCASH - HEY HEY HEY
EXTD=
EXTT0=
EXTT1=
EXTT2=
EXTT3=
EXTT4=
EXTT5=
EXTT6=
EXTT7=
EXTT8=
EXTT9=
EXTT10=
EXTT11=
EXTT12=
PLAYORDER=
